<svg width="17" height="18" viewBox="0 0 17 18" fill="none" xmlns="http://www.w3.org/2000/svg">
<path d="M0.292919 15.293L6.58592 9.00002L0.292919 2.70702C0.110761 2.51842 0.00996641 2.26582 0.0122448 2.00362C0.0145233 1.74142 0.119692 1.49061 0.305101 1.3052C0.490509 1.11979 0.741321 1.01462 1.00352 1.01235C1.26571 1.01007 1.51832 1.11086 1.70692 1.29302L7.99992 7.58602L14.2929 1.29302C14.3852 1.19751 14.4955 1.12133 14.6175 1.06892C14.7395 1.01651 14.8707 0.988924 15.0035 0.98777C15.1363 0.986616 15.268 1.01192 15.3909 1.0622C15.5138 1.11248 15.6254 1.18673 15.7193 1.28062C15.8132 1.37452 15.8875 1.48617 15.9377 1.60907C15.988 1.73196 16.0133 1.86364 16.0122 1.99642C16.011 2.1292 15.9834 2.26042 15.931 2.38242C15.8786 2.50443 15.8024 2.61477 15.7069 2.70702L9.41392 9.00002L15.7069 15.293C15.8024 15.3853 15.8786 15.4956 15.931 15.6176C15.9834 15.7396 16.011 15.8708 16.0122 16.0036C16.0133 16.1364 15.988 16.2681 15.9377 16.391C15.8875 16.5139 15.8132 16.6255 15.7193 16.7194C15.6254 16.8133 15.5138 16.8876 15.3909 16.9378C15.268 16.9881 15.1363 17.0134 15.0035 17.0123C14.8707 17.0111 14.7395 16.9835 14.6175 16.9311C14.4955 16.8787 14.3852 16.8025 14.2929 16.707L7.99992 10.414L1.70692 16.707C1.51832 16.8892 1.26571 16.99 1.00352 16.9877C0.741321 16.9854 0.490509 16.8802 0.305101 16.6948C0.119692 16.5094 0.0145233 16.2586 0.0122448 15.9964C0.00996641 15.7342 0.110761 15.4816 0.292919 15.293Z" fill="#526EFF"/>
</svg>
